<?xml version="1.0" standalone="no"?>
<!DOCTYPE svg PUBLIC "-//W3C//DTD SVG 20010904//EN"
 "http://www.w3.org/TR/2001/REC-SVG-20010904/DTD/svg10.dtd">
<svg version="1.0" xmlns="http://www.w3.org/2000/svg"
 width="1280.000000pt" height="720.000000pt" viewBox="0 0 1280.000000 720.000000"
 preserveAspectRatio="xMidYMid meet">

<g transform="translate(0.000000,720.000000) scale(0.100000,-0.100000)"
fill="#000000" stroke="none">
<path d="M6230 6104 c-682 -85 -1270 -458 -1635 -1039 -246 -391 -374 -908
-335 -1360 48 -568 265 -1042 654 -1431 199 -198 366 -318 609 -434 322 -155
587 -214 952 -214 231 0 348 13 548 64 778 196 1403 827 1603 1616 51 203 68
340 68 564 0 223 -17 360 -69 566 -113 445 -376 863 -725 1156 -303 255 -656
420 -1055 494 -87 16 -526 29 -615 18z m595 -83 c948 -165 1657 -915 1785
-1889 6 -46 11 -163 11 -260 0 -289 -43 -526 -143 -784 l-29 -78 -260 0 c-142
0 -259 2 -259 5 0 3 20 45 45 94 65 130 122 306 152 466 23 129 25 155 20 335
-6 217 -22 313 -84 504 -44 138 -143 332 -231 456 -82 116 -247 284 -362 369
-86 63 -244 157 -312 186 l-38 15 50 -68 c27 -37 79 -91 114 -120 78 -62 92
-84 71 -106 -8 -8 -15 -17 -15 -20 0 -7 100 -42 143 -50 28 -5 37 -12 37 -26
0 -17 -7 -20 -50 -20 -92 0 -57 -28 73 -57 59 -13 67 -18 67 -38 0 -18 -7 -25
-30 -30 -33 -7 -40 -29 -12 -44 9 -5 46 -15 81 -22 64 -12 101 -36 101 -64 0
-9 -9 -15 -24 -15 -36 0 -86 -12 -86 -20 0 -4 21 -11 46 -15 63 -9 110 -33
123 -62 15 -33 16 -33 -31 -34 -58 -2 -102 -12 -102 -24 -1 -5 28 -15 64 -22
158 -31 191 -86 65 -107 -106 -18 -100 -30 22 -43 74 -8 100 -15 110 -29 19
-27 1 -34 -92 -34 -71 0 -119 -11 -105 -23 3 -2 43 -19 90 -37 47 -18 94 -41
104 -51 19 -17 19 -18 -5 -23 -13 -3 -57 -7 -97 -9 -70 -4 -92 -10 -80 -23 3
-3 52 -13 107 -23 56 -10 104 -21 107 -24 3 -3 -6 -13 -20 -22 -16 -11 -56
-18 -120 -22 -53 -3 -96 -10 -96 -14 0 -10 51 -24 164 -43 138 -24 134 -31
-32 -50 -67 -8 -129 -19 -138 -24 -16 -9 -16 -10 2 -20 10 -5 72 -22 137 -37
179 -41 173 -59 -29 -80 -76 -8 -145 -15 -151 -15 -7 0 -13 -4 -13 -8 0 -4 56
-16 125 -25 129 -18 175 -30 175 -46 0 -17 -63 -31 -144 -32 -89 0 -167 -11
-151 -21 6 -3 63 -22 128 -42 86 -27 117 -41 117 -53 0 -14 -11 -15 -92 -9
-51 3 -119 9 -150 12 -50 6 -58 4 -58 -10 0 -9 2 -16 5 -16 9 0 188 -30 243
-41 32 -7 52 -16 52 -24 0 -19 -19 -23 -153 -31 -139 -8 -148 -21 -32 -46 93
-20 125 -33 125 -52 0 -24 -24 -35 -100 -46 -41 -6 -76 -13 -79 -16 -8 -8 18
-22 86 -44 93 -32 95 -72 2 -85 -27 -4 -49 -9 -49 -12 0 -21 28 -44 70 -58 27
-9 50 -22 50 -28 1 -7 1 -212 0 -457 l0 -445 -28 -23 c-140 -116 -364 -247
-549 -320 -242 -95 -460 -140 -723 -149 -489 -16 -948 129 -1350 427 l-80 60
0 411 c0 451 -1 447 61 483 36 21 37 38 4 56 -34 18 -31 34 10 66 53 40 46 53
-32 56 -39 2 -68 8 -70 15 -2 6 29 22 76 38 75 25 100 39 88 51 -2 3 -47 9
-98 15 -86 10 -121 20 -107 34 2 3 53 14 113 25 110 19 142 33 116 49 -15 10
-68 17 -203 27 -49 3 -88 10 -88 15 0 13 10 16 153 42 186 34 184 43 -15 76
-72 12 -135 24 -140 27 -20 13 11 23 132 44 186 33 183 39 -23 65 -182 23
-181 33 8 71 193 38 192 47 -4 63 -183 15 -184 31 -6 71 120 26 138 31 133 36
-2 2 -55 8 -117 14 -62 6 -122 15 -133 21 -33 18 -4 35 80 48 106 16 134 22
129 27 -2 3 -42 11 -88 20 -183 33 -186 57 -11 89 57 11 90 21 85 26 -6 6 -39
18 -74 28 -92 26 -89 41 15 90 47 23 86 43 86 45 0 3 -34 2 -75 -1 -104 -8
-100 11 15 67 50 24 90 48 90 52 0 4 -17 8 -38 8 -47 0 -78 20 -69 44 4 10 34
29 67 43 33 15 60 30 60 34 0 4 -14 10 -31 14 -36 8 -47 29 -28 52 8 9 48 32
89 52 82 39 97 64 43 69 -18 2 -33 6 -32 10 1 13 57 51 128 87 39 20 71 38 71
40 0 3 -21 2 -47 -1 l-48 -6 106 108 c58 60 117 125 130 144 13 19 35 44 49
55 47 37 130 118 126 123 -7 7 -170 -83 -261 -144 -112 -74 -251 -198 -333
-296 -275 -328 -412 -699 -412 -1118 0 -278 57 -525 175 -760 25 -49 45 -92
45 -95 0 -3 -116 -4 -257 -3 l-256 3 -38 100 c-46 121 -93 311 -115 460 -21
150 -21 445 0 599 66 472 268 882 601 1225 366 376 811 589 1350 645 101 10
414 -3 530 -23z m-2186 -3178 l-1 -78 -33 70 c-19 39 -34 73 -35 78 0 4 16 7
35 7 l35 0 -1 -77z m70 -65 l0 -143 -22 45 c-15 33 -22 71 -25 143 l-4 97 26
0 26 0 -1 -142z m81 -55 l-1 -198 -24 28 c-24 28 -25 32 -25 198 l0 169 25 0
25 0 0 -197z m90 80 c0 -65 -3 -176 -7 -247 l-6 -128 -24 38 c-22 38 -23 47
-23 247 l0 207 30 0 30 0 0 -117z m80 -173 c0 -159 -3 -290 -6 -290 -3 0 -14
10 -25 23 -17 20 -18 43 -19 290 l0 267 25 0 25 0 0 -290z m80 -30 c0 -176 -3
-320 -7 -320 -3 0 -15 7 -25 17 -17 15 -18 38 -18 320 l0 303 25 0 25 0 0
-320z m2918 4 l2 -300 -25 -24 -25 -23 0 327 0 327 23 -3 22 -3 3 -301z m82
39 c-1 -247 -2 -270 -19 -290 -11 -13 -22 -23 -25 -23 -3 0 -6 131 -6 290 l0
290 25 0 25 0 0 -267z m90 60 c0 -200 -1 -209 -23 -247 l-24 -38 -6 107 c-4
60 -7 170 -7 247 l0 138 30 0 30 0 0 -207z m80 35 c-1 -154 -3 -175 -19 -195
-11 -13 -22 -23 -25 -23 -3 0 -6 88 -6 195 l0 195 25 0 25 0 0 -172z m78 75
c-3 -72 -10 -110 -25 -143 l-22 -45 0 143 -1 142 26 0 26 0 -4 -97z m86 75
c-3 -13 -19 -48 -35 -78 l-28 -55 -1 78 0 77 36 0 c32 0 35 -2 28 -22z"/>
<path d="M6300 5913 c-19 -1 -71 -5 -115 -9 l-80 -5 3 -82 c1 -45 5 -115 8
-155 5 -66 8 -73 26 -70 20 3 21 9 19 113 -1 61 -4 120 -7 132 -7 26 8 31 106
35 l65 3 6 -115 c4 -63 7 -123 8 -132 0 -11 9 -18 22 -18 21 0 22 2 17 135
l-5 135 34 0 c26 0 33 4 33 20 0 18 -6 20 -52 18 -29 0 -69 -3 -88 -5z"/>
<path d="M6880 5877 c-78 -41 -107 -112 -85 -202 24 -92 134 -167 223 -150 48
9 82 46 82 88 0 38 -20 61 -68 78 l-31 11 19 51 c15 39 17 53 7 59 -6 4 -16 6
-20 5 -9 -3 -77 -170 -77 -188 0 -20 38 -7 48 16 20 44 82 28 82 -21 0 -64
-85 -92 -154 -52 -119 69 -95 263 36 299 53 14 109 -3 159 -48 54 -49 62 -66
68 -148 5 -56 9 -70 24 -73 14 -3 17 5 17 53 0 100 -50 176 -145 221 -65 31
-128 31 -185 1z"/>
<path d="M5522 5737 c-72 -40 -132 -76 -132 -81 0 -13 134 -256 141 -256 4 0
16 8 28 18 l21 17 -60 108 c-33 59 -60 109 -60 112 0 9 71 46 79 41 5 -3 35
-52 66 -108 32 -57 59 -104 60 -106 4 -5 55 21 55 27 0 3 -11 26 -25 50 -27
47 -32 80 -13 99 48 48 134 -54 107 -126 -17 -45 -37 -60 -187 -140 -132 -71
-174 -103 -157 -120 3 -4 21 2 38 12 18 10 89 50 159 88 143 77 192 123 203
187 20 117 -86 198 -174 133 -17 -12 -33 -22 -35 -22 -10 0 -37 60 -32 69 3 5
19 14 36 21 32 13 34 18 22 37 -5 8 -46 -9 -140 -60z"/>
<path d="M7709 5293 c-20 -23 -15 -99 11 -157 54 -126 144 -215 233 -232 29
-5 44 -15 58 -38 10 -17 19 -34 19 -38 0 -4 -18 -17 -40 -29 -43 -24 -47 -35
-27 -64 13 -17 22 -13 153 65 173 103 170 101 147 128 l-18 22 -83 -50 c-46
-27 -86 -50 -90 -50 -4 0 -15 12 -24 28 -16 27 -16 28 24 61 70 59 84 122 44
206 -43 94 -113 129 -170 84 -47 -37 -26 -131 36 -165 34 -20 53 -17 87 12 25
21 31 23 31 9 0 -39 -62 -115 -94 -115 -6 0 -50 64 -96 142 -47 78 -96 155
-108 170 -27 32 -72 37 -93 11z m159 -184 c46 -78 81 -144 78 -146 -11 -12
-59 10 -96 43 -47 43 -110 163 -110 210 0 29 4 34 23 34 18 0 38 -27 105 -141z
m166 75 c25 -25 20 -63 -10 -76 -23 -11 -29 -10 -45 11 -25 30 -24 46 3 65 28
20 33 20 52 0z"/>
<path d="M4993 5293 c-33 -6 -83 -68 -83 -102 0 -22 13 -41 55 -79 30 -28 55
-53 55 -57 0 -11 -64 -85 -74 -85 -5 0 -40 27 -78 61 -57 50 -71 59 -83 49 -8
-7 -15 -16 -15 -20 0 -4 37 -39 82 -78 l83 -71 55 59 c43 45 64 60 93 65 37 6
38 6 31 -22 -14 -66 -27 -94 -51 -113 -32 -25 -46 -17 -38 21 8 35 -7 38 -29
7 -35 -49 -10 -97 41 -81 43 15 90 84 104 153 6 33 22 74 35 91 34 47 18 57
-25 15 -20 -20 -45 -36 -54 -36 -13 0 -6 14 28 55 25 31 45 64 45 74 0 23 -46
66 -92 85 -38 16 -45 17 -85 9z m90 -64 c26 -17 47 -37 47 -45 0 -17 -58 -84
-74 -84 -14 0 -116 96 -116 110 0 20 41 50 68 50 16 0 50 -14 75 -31z"/>
<path d="M4812 5238 c-19 -19 -15 -48 7 -48 24 0 45 25 37 45 -7 18 -27 20
-44 3z"/>
<path d="M4532 4640 c-60 -37 -93 -156 -57 -208 23 -32 90 -66 180 -92 44 -12
83 -25 86 -29 4 -3 0 -30 -9 -58 -10 -36 -20 -53 -31 -53 -9 0 -68 16 -131 34
-63 19 -115 34 -116 33 -1 -1 -4 -11 -8 -23 -6 -19 4 -24 139 -63 81 -24 148
-41 151 -39 8 9 94 312 94 333 0 32 -29 53 -101 71 -89 24 -151 14 -196 -31
l-33 -33 0 28 c0 15 10 42 23 61 29 44 57 46 213 20 119 -21 133 -19 134 15 0
11 -213 54 -270 54 -19 0 -50 -9 -68 -20z m193 -141 c25 -6 49 -17 55 -24 14
-17 -7 -104 -26 -112 -18 -7 -141 31 -181 57 -93 57 16 113 152 79z"/>
<path d="M8330 4450 c-25 -4 -71 -11 -102 -14 -53 -7 -58 -10 -58 -32 0 -13 3
-24 8 -24 4 0 52 7 106 15 55 8 103 12 107 10 9 -6 43 -134 37 -140 -10 -10
-222 -35 -227 -27 -27 38 -65 82 -72 82 -23 0 -4 -40 41 -86 l49 -51 88 13
c123 19 130 18 137 -11 6 -24 36 -36 36 -14 0 6 -12 74 -27 150 -30 157 -20
146 -123 129z"/>
<path d="M4523 3868 c-26 -12 -45 -56 -48 -106 -2 -33 -6 -37 -34 -40 -29 -3
-31 -1 -37 37 -4 28 -10 38 -20 34 -14 -5 -13 -61 2 -211 l6 -54 48 7 c46 6
49 5 62 -22 9 -19 22 -29 41 -31 70 -8 118 103 86 197 -13 37 -35 51 -83 51
-34 0 -36 2 -36 33 0 46 15 57 77 57 67 0 71 -7 84 -151 5 -61 16 -123 24
-139 26 -51 85 -69 85 -26 0 17 -7 26 -25 30 -13 3 -29 15 -35 26 -9 17 -28
177 -30 243 0 10 -13 32 -29 48 -24 23 -38 29 -73 28 -24 0 -53 -5 -65 -11z
m75 -215 c16 -22 15 -48 -3 -82 -17 -35 -44 -46 -62 -28 -20 20 -29 117 -12
128 19 12 61 2 77 -18z m-120 -20 c-3 -35 -6 -38 -33 -38 -26 0 -30 4 -33 32
-3 32 5 39 51 42 15 1 18 -6 15 -36z"/>
<path d="M6395 3690 c-2 -4 -23 -7 -46 -8 -54 -2 -72 -18 -65 -55 3 -17 0 -41
-10 -58 -14 -27 -18 -29 -52 -23 -20 4 -48 15 -61 25 -26 21 -56 25 -66 9 -3
-5 -15 -10 -25 -10 -11 0 -32 -16 -47 -35 -15 -20 -43 -44 -60 -55 -18 -11
-33 -25 -33 -33 0 -7 -11 -28 -25 -47 -32 -44 -32 -53 8 -94 17 -19 43 -51 57
-70 28 -39 45 -44 72 -19 17 15 18 15 18 -3 0 -10 -9 -34 -20 -52 -22 -36 -36
-147 -20 -157 6 -3 10 -17 10 -29 0 -13 7 -30 16 -37 9 -7 20 -22 25 -34 10
-19 23 -43 44 -75 5 -8 8 -28 7 -45 -1 -16 4 -56 12 -89 9 -39 11 -68 5 -90
-5 -17 -9 -47 -9 -67 0 -37 -21 -66 -40 -54 -5 3 -10 0 -10 -8 0 -10 7 -13 19
-10 15 4 19 0 17 -14 -2 -10 -1 -13 1 -6 2 6 16 13 31 15 15 2 26 8 24 13 -2
6 -9 9 -16 7 -20 -4 -18 53 5 143 15 62 17 90 10 125 l-9 45 -1 -53 c-1 -33
-5 -51 -11 -47 -5 3 -10 39 -10 78 1 68 2 70 15 47 13 -22 14 -23 15 -5 0 11
14 31 30 45 17 13 30 30 30 37 0 27 17 11 30 -27 7 -23 16 -37 19 -32 3 4 20
9 38 10 23 2 37 -4 51 -23 16 -21 21 -22 26 -9 3 8 14 14 23 12 16 -3 17 -13
14 -78 -1 -40 -8 -85 -14 -99 -9 -24 -11 -21 -19 34 -18 134 -19 80 -2 -120 3
-42 2 -56 -6 -45 -21 32 -10 -15 15 -62 17 -33 21 -47 12 -51 -20 -7 -37 3
-37 23 0 22 -16 35 -25 20 -3 -5 -1 -10 4 -10 6 0 11 -6 11 -14 0 -17 -37 -28
-44 -12 -3 6 -4 0 -3 -13 1 -13 -4 -26 -12 -29 -9 -3 -11 0 -6 9 6 10 5 11 -4
3 -12 -11 -5 -44 10 -44 5 0 9 -5 9 -11 0 -6 -8 -8 -18 -5 -22 7 -47 -35 -43
-72 2 -21 0 -23 -21 -16 -12 4 -32 8 -43 9 -12 1 -27 15 -37 36 -27 54 -23 66
24 73 24 4 47 15 55 26 19 27 37 26 23 0 -7 -14 -7 -20 0 -20 5 0 10 4 10 9 0
5 3 16 6 25 4 11 1 16 -11 16 -18 0 -45 23 -45 39 0 6 7 11 16 11 10 0 14 5
10 16 -3 9 -2 12 5 8 6 -3 8 -16 5 -28 -5 -19 -3 -19 14 4 21 27 27 21 10 -10
-9 -16 -8 -18 6 -13 12 4 15 3 10 -5 -4 -7 -3 -12 2 -12 6 0 12 7 16 15 3 8 1
15 -4 15 -6 0 -10 7 -10 15 0 8 7 15 15 15 8 0 15 4 15 10 0 5 -8 6 -17 3 -16
-6 -16 -5 -4 10 11 14 13 44 8 142 -3 69 -10 133 -16 142 -9 15 -11 12 -12
-17 -1 -33 -2 -34 -10 -10 -6 18 -7 12 -3 -20 8 -58 6 -98 -6 -120 -6 -10 -11
-36 -11 -57 -1 -21 -3 -30 -6 -20 -8 30 -20 19 -33 -30 -6 -27 -19 -57 -28
-67 -9 -11 -11 -16 -4 -12 6 4 12 3 12 -3 0 -5 -16 -15 -35 -21 -19 -6 -35
-16 -35 -20 0 -5 7 -7 15 -4 11 5 13 2 9 -10 -4 -10 -14 -15 -30 -12 -26 5
-32 -8 -11 -21 8 -4 22 -32 32 -60 18 -51 21 -53 57 -54 21 -1 44 -2 50 -3 7
-1 15 15 18 34 7 42 18 62 30 55 11 -6 1 -75 -13 -92 -5 -7 -18 -13 -29 -13
-15 0 -18 -5 -13 -22 4 -13 13 -29 21 -36 9 -7 10 -8 4 0 -17 21 -12 48 10 48
11 0 20 -6 20 -13 0 -7 14 -35 31 -62 21 -33 27 -50 19 -55 -6 -4 11 -10 39
-14 35 -5 51 -11 51 -21 0 -8 4 -15 10 -15 5 0 7 6 5 13 -4 9 10 12 50 12 30
0 55 4 55 8 0 5 5 5 12 1 6 -4 28 -6 50 -6 21 1 38 -2 38 -6 0 -4 -35 -8 -77
-10 -77 -2 -117 -12 -50 -12 21 0 37 -3 37 -7 0 -5 -18 -7 -40 -7 -22 1 -40
-2 -40 -6 0 -4 34 -7 77 -6 50 1 78 -3 80 -11 3 -8 -24 -11 -96 -10 -86 2
-101 4 -105 20 -3 14 -18 17 -93 19 l-88 2 85 6 c47 3 77 7 68 8 -10 1 -18 8
-18 15 0 8 -4 7 -10 -3 -9 -13 -11 -13 -20 0 -7 11 -10 11 -10 2 0 -13 -35
-13 -57 1 -8 5 -13 3 -13 -3 0 -6 -5 -8 -12 -4 -7 5 -28 7 -47 5 -29 -2 -33 0
-27 16 5 16 5 16 -9 -1 -14 -18 -19 -15 -16 9 1 6 -6 1 -14 -9 -14 -18 -20
-15 -16 8 1 5 -4 4 -12 -3 -12 -9 -16 -9 -20 1 -4 10 -6 9 -6 -1 -1 -11 -5
-10 -15 5 -15 19 -15 19 -31 -1 -11 -13 -15 -15 -12 -5 3 9 -1 24 -9 35 -12
17 -14 17 -14 2 0 -32 -20 -17 -21 16 0 22 -3 27 -7 15 -4 -10 -7 17 -7 60 0
42 -3 93 -8 112 -8 36 7 32 16 -5 4 -18 5 -17 6 3 1 27 21 20 21 -7 0 -10 7
-24 16 -32 9 -7 14 -22 11 -36 -2 -13 0 -22 6 -20 5 1 10 19 12 40 1 30 -1 35
-12 26 -10 -9 -13 -5 -13 24 0 19 7 40 15 47 20 17 19 31 -1 23 -15 -6 -15 -4
0 19 13 21 14 27 4 31 -8 3 -6 6 6 6 13 1 17 -4 13 -18 -3 -12 0 -18 9 -17 24
4 25 13 3 38 l-22 25 -23 -26 c-18 -20 -23 -22 -24 -10 0 9 6 19 14 22 7 3 16
16 19 28 6 21 4 20 -18 -6 -13 -17 -24 -41 -25 -54 0 -24 -34 -61 -54 -61 -6
1 3 12 19 25 l30 25 -422 0 -423 0 0 -100 0 -100 390 0 c304 0 392 -3 395 -12
2 -7 9 -32 15 -56 15 -59 41 -82 90 -82 38 0 40 -2 34 -24 -4 -19 0 -28 20
-41 22 -15 65 -17 353 -18 368 -2 373 -1 373 59 0 24 -4 33 -12 28 -7 -5 -8
-3 -3 6 5 8 20 10 43 7 30 -5 39 -2 63 24 16 17 29 36 30 43 0 6 1 52 1 103 0
84 -2 94 -27 127 -16 21 -32 33 -41 29 -9 -3 -14 2 -14 13 0 11 -7 28 -15 38
-17 23 -19 17 -5 -18 6 -17 6 -26 0 -26 -6 0 -10 5 -10 12 0 6 -7 20 -17 30
-18 20 -17 23 13 32 16 5 23 2 27 -13 2 -10 15 -24 27 -31 21 -11 21 -10 -5
24 -20 27 -35 36 -56 36 -16 0 -29 4 -29 8 0 5 -6 9 -14 9 -8 0 -12 -7 -9 -16
3 -11 0 -10 -11 3 -9 11 -16 15 -16 8 0 -6 11 -19 25 -28 14 -9 25 -21 25 -27
0 -5 8 -16 17 -23 10 -7 15 -15 12 -18 -10 -10 -38 4 -42 22 -4 15 -5 15 -6 0
0 -10 -8 -18 -16 -18 -17 0 -42 36 -61 88 -10 27 -13 31 -14 15 0 -38 -15 -26
-17 15 -2 27 0 33 7 22 19 -29 10 9 -11 50 -19 37 -21 49 -13 138 4 53 6 108
5 122 -2 24 -1 23 36 -13 37 -36 38 -40 44 -125 l6 -87 1 88 c1 48 6 87 11 87
15 0 23 -58 17 -119 -4 -37 -3 -49 3 -36 5 11 10 45 10 76 1 45 9 70 41 130
22 41 42 81 46 89 3 8 11 26 17 39 21 42 14 160 -11 209 -24 45 -21 55 6 21
21 -25 38 -19 72 24 13 18 17 26 8 19 -10 -8 -23 -10 -29 -6 -9 5 -10 2 -6
-10 4 -10 1 -19 -8 -22 -19 -8 -64 44 -65 73 0 21 -2 20 -35 -12 -19 -19 -37
-30 -40 -25 -10 17 45 75 73 77 29 2 56 23 30 23 -16 0 -31 37 -21 53 3 5 19
6 35 3 18 -3 27 -2 23 4 -3 6 -17 10 -31 10 -28 0 -32 23 -8 47 14 14 21 14
62 2 39 -12 48 -20 50 -41 2 -14 12 -34 23 -44 10 -9 19 -25 19 -36 0 -19 -15
-24 -25 -8 -3 6 -12 10 -18 10 -7 0 -4 -5 6 -11 9 -5 17 -15 17 -21 0 -7 -6
-6 -15 2 -13 11 -14 10 -9 -5 5 -13 4 -16 -4 -11 -8 5 -10 1 -5 -10 4 -12 2
-15 -8 -12 -8 3 -14 14 -15 25 -2 29 -12 43 -34 43 -33 0 -36 -52 -3 -64 8 -3
20 -3 26 1 6 4 8 0 4 -9 -9 -24 32 -11 66 20 32 31 34 55 7 89 -11 14 -20 36
-20 48 0 27 -15 41 -57 49 -21 5 -33 14 -37 31 -3 13 -22 33 -41 45 -40 25
-74 21 -106 -11 -27 -27 -89 -38 -89 -17 0 9 -7 21 -15 28 -9 7 -14 19 -11 26
3 7 -2 31 -11 52 -13 34 -21 41 -52 46 -56 9 -201 13 -206 6z m37 -18 c4 10 8
10 21 -1 10 -7 17 -9 17 -3 0 5 11 10 25 10 14 0 25 -5 25 -10 0 -6 7 -5 16 3
9 7 18 9 22 3 4 -5 21 -9 37 -9 17 0 30 -4 31 -10 0 -5 6 -23 12 -38 7 -16 9
-33 6 -38 -3 -6 1 -18 9 -27 8 -9 15 -36 16 -59 1 -24 2 -51 3 -60 1 -25 -5
-45 -18 -60 -6 -6 -9 -23 -7 -37 4 -18 -2 -33 -18 -51 -27 -28 -35 -31 -36
-12 0 6 -4 19 -7 28 -5 10 1 19 16 26 23 10 35 48 18 58 -4 3 -26 -12 -47 -34
-36 -37 -41 -39 -97 -37 -49 1 -60 4 -67 21 -4 11 -8 16 -8 12 -1 -5 -14 1
-29 12 l-28 20 -13 -21 c-12 -19 -13 -19 -32 -2 -24 21 -24 33 -2 49 13 10 23
10 37 3 16 -9 18 -8 12 7 -3 10 -1 24 5 31 8 10 6 20 -11 41 l-23 28 7 -34 c7
-38 -6 -61 -34 -61 -13 0 -17 6 -13 19 3 12 -2 20 -14 23 -13 4 -19 0 -19 -13
0 -11 4 -15 11 -9 7 5 10 -11 11 -51 0 -48 -2 -56 -14 -47 -8 7 -11 21 -7 37
4 18 3 22 -4 12 -7 -11 -14 -10 -40 8 -28 21 -36 40 -32 81 2 13 0 13 -8 1 -5
-8 -7 -30 -5 -49 4 -31 2 -34 -17 -29 -20 5 -20 5 -4 -13 11 -12 15 -26 11
-37 -7 -17 -8 -17 -17 0 -6 9 -17 17 -24 17 -8 0 -15 5 -15 10 0 6 5 10 10 10
6 0 10 5 10 10 0 6 -8 10 -17 10 -15 0 -13 4 7 20 14 10 21 22 17 26 -4 4 -7
3 -7 -3 0 -6 -6 -13 -14 -16 -11 -4 -14 1 -13 20 2 21 -4 28 -23 33 -29 7 -36
46 -8 44 11 -1 14 4 11 14 -5 11 -2 13 6 7 7 -4 24 -1 38 6 22 12 27 11 39 -6
8 -10 14 -25 14 -32 0 -7 5 -13 11 -13 6 0 9 7 5 15 -4 10 1 15 14 15 11 0 20
-7 20 -15 0 -8 5 -15 11 -15 5 0 8 -4 4 -9 -3 -5 0 -13 6 -17 8 -4 9 -3 5 4
-4 7 -2 12 5 12 8 0 7 5 -2 17 -12 14 -12 16 1 11 8 -2 15 -12 15 -21 0 -8 4
-19 8 -23 4 -4 7 -2 7 4 0 21 17 13 25 -10 4 -15 8 -18 12 -10 3 7 -3 22 -12
32 -21 24 -16 66 8 64 12 -1 16 3 13 15 -22 74 -20 80 39 85 20 2 38 6 42 10
3 3 12 1 19 -5 8 -7 13 -6 16 3z m432 -118 c9 -3 16 -12 16 -20 0 -8 6 -13 13
-11 6 1 12 -7 12 -18 0 -13 -8 -21 -22 -23 -13 -2 -23 -9 -23 -17 0 -7 -13
-18 -30 -24 -16 -5 -30 -15 -30 -21 0 -6 12 -4 31 5 37 19 54 9 22 -12 -13 -9
-23 -20 -23 -25 0 -6 7 -5 15 2 13 11 15 8 15 -14 0 -21 -7 -29 -29 -37 -21
-7 -28 -15 -24 -26 4 -11 2 -14 -8 -11 -8 3 -14 15 -14 29 0 18 7 25 30 30 17
4 22 7 13 8 -10 0 -18 6 -18 11 0 20 -42 27 -72 13 -15 -8 -32 -12 -37 -9 -5
3 -11 -14 -12 -38 -3 -32 -1 -42 9 -39 14 6 17 -33 2 -42 -5 -3 -10 -14 -10
-23 0 -14 2 -15 10 -2 5 8 12 11 17 7 4 -4 2 -17 -5 -27 -16 -27 -15 -35 3
-20 19 15 21 -1 4 -32 -11 -20 -12 -20 -24 8 -22 48 -35 95 -35 123 0 36 24
101 41 112 10 6 10 9 2 9 -25 0 -12 28 19 41 17 7 26 15 19 17 -6 2 -18 -2
-27 -8 -8 -7 -18 -10 -22 -6 -11 12 46 56 63 50 9 -4 23 4 36 20 20 26 42 32
73 20z m-814 -75 c22 -18 23 -21 9 -31 -15 -10 -15 -12 1 -28 12 -12 16 -32
14 -83 -2 -58 -5 -69 -29 -92 -33 -29 -61 -34 -51 -8 4 10 4 15 1 11 -4 -3
-15 1 -25 9 -14 13 -16 21 -9 41 8 20 7 23 -4 14 -10 -8 -19 -4 -40 17 l-26
28 24 34 c14 18 25 39 25 46 0 11 65 61 80 62 3 0 16 -9 30 -20z m163 -107
c17 -15 23 -42 10 -42 -18 0 -66 48 -59 59 8 12 19 8 49 -17z m562 -2 c0 -8
-11 -17 -24 -20 -14 -3 -26 -11 -29 -19 -3 -10 0 -11 17 -2 31 17 39 -11 12
-38 -26 -26 -31 -26 -31 0 0 11 -4 29 -10 39 -8 15 -5 23 17 40 28 22 48 22
48 0z m-649 -39 c10 -13 13 -12 23 7 l12 22 29 -21 c16 -12 35 -19 42 -16 8 2
22 -1 32 -8 14 -11 16 -21 11 -47 -4 -18 -11 -37 -15 -43 -13 -18 -41 -122
-42 -155 -1 -34 -11 -24 -22 23 -5 21 -3 27 11 27 13 0 14 3 5 12 -14 14 -16
52 -2 43 6 -4 10 7 10 27 0 25 3 29 10 18 8 -13 10 -13 10 1 0 9 -3 19 -7 22
-10 11 -32 -13 -26 -29 4 -10 -2 -17 -15 -21 -18 -4 -19 -8 -9 -25 10 -16 9
-22 -5 -32 -14 -10 -15 -15 -5 -25 9 -10 9 -15 -3 -24 -8 -7 -14 -22 -12 -34
2 -13 -2 -23 -9 -23 -9 0 -9 -3 1 -15 12 -15 6 -35 -11 -35 -6 0 -8 4 -4 9 3
6 -4 15 -15 21 -28 15 -27 44 2 34 22 -6 22 -6 5 19 -22 34 -21 40 3 34 24 -6
25 1 4 24 -20 22 -9 46 12 28 8 -7 14 -7 14 -1 0 5 -7 15 -15 22 -19 16 -1 42
22 33 11 -4 14 -3 9 6 -5 8 -19 10 -37 6 -24 -6 -28 -4 -23 10 4 10 -2 25 -16
40 -27 29 -18 55 11 29 29 -26 23 -1 -6 26 -14 13 -25 27 -25 31 0 12 33 -2
46 -20z m243 -11 c6 0 11 -4 11 -8 0 -10 -39 -47 -43 -41 -1 2 -13 19 -26 38
-18 26 -20 33 -8 28 9 -3 19 -1 23 5 5 7 11 6 19 -5 7 -10 17 -17 24 -17z
m563 -2 c-7 -7 -12 -8 -12 -2 0 14 12 26 19 19 2 -3 -1 -11 -7 -17z m33 3 c3
-5 2 -12 -3 -15 -5 -3 -9 1 -9 9 0 17 3 19 12 6z m-505 -56 c4 2 10 -4 13 -15
3 -11 1 -23 -4 -26 -16 -9 -39 4 -40 23 0 13 -3 11 -10 -7 l-10 -25 -24 29
c-31 39 -24 47 26 30 22 -8 44 -12 49 -9z m123 -5 c-7 -25 -15 -31 -57 -36
-30 -3 -34 -1 -32 19 1 20 6 24 35 24 19 0 37 5 39 11 6 20 20 3 15 -18z m202
20 c3 -5 -3 -15 -15 -22 -26 -16 -26 -28 0 -21 25 7 27 -15 3 -33 -16 -12 -15
-12 7 -7 14 3 36 17 48 32 l24 26 -6 -27 c-5 -21 -3 -28 9 -28 8 0 15 -4 15
-9 0 -5 3 -18 7 -28 6 -16 5 -16 -10 -4 -9 7 -14 17 -11 22 3 5 -2 9 -10 9 -9
0 -16 5 -16 11 0 6 -12 -4 -26 -21 -15 -17 -24 -33 -22 -36 3 -2 11 2 18 11 7
8 19 15 28 15 13 0 13 -2 -1 -18 -18 -20 -22 -42 -8 -42 5 0 11 7 15 15 5 14
36 22 36 9 0 -15 -37 -49 -50 -46 -19 4 -52 55 -75 115 -16 43 -16 46 1 66 20
23 30 26 39 11z m-470 -49 c-7 -23 -25 -29 -25 -8 0 14 21 39 28 33 2 -3 1
-14 -3 -25z m-213 -11 c-2 -7 4 -20 13 -30 14 -15 14 -19 2 -32 -11 -10 -12
-19 -5 -32 8 -14 5 -19 -11 -23 -18 -4 -19 -8 -9 -20 10 -12 9 -17 -3 -27 -9
-6 -14 -16 -12 -23 2 -6 0 -14 -6 -17 -5 -3 -7 -15 -4 -26 8 -32 -11 -23 -24
11 -10 26 -10 30 3 25 19 -7 18 3 -3 26 -19 22 -10 36 12 18 21 -17 20 3 -1
36 -18 26 -12 46 8 26 21 -21 29 -13 12 13 -19 29 -12 44 11 25 20 -17 19 -1
-1 21 -9 10 -14 26 -10 34 7 19 33 14 28 -5z m553 11 c3 -5 1 -12 -5 -16 -5
-3 -10 1 -10 9 0 18 6 21 15 7z m-35 -22 c0 -5 -7 -9 -15 -9 -15 0 -20 12 -9
23 8 8 24 -1 24 -14z m-344 -16 c-10 -10 -19 5 -10 18 6 11 8 11 12 0 2 -7 1
-15 -2 -18z m84 17 c0 -12 -40 -33 -48 -25 -4 4 2 13 12 21 23 16 36 18 36 4z
m60 -8 c0 -13 -49 -56 -56 -49 -10 10 24 57 41 57 8 0 15 -4 15 -8z m50 -15
c0 -17 -58 -68 -65 -56 -10 16 25 69 45 69 11 0 20 -6 20 -13z m67 -9 c23 -22
31 -58 13 -58 -5 0 -10 6 -10 14 0 8 -6 16 -14 19 -8 3 -20 15 -26 26 -15 29
6 28 37 -1z m52 3 c15 -12 22 -24 18 -34 -3 -9 -2 -19 3 -22 11 -7 14 -45 4
-45 -10 0 -43 44 -44 58 0 6 6 12 13 12 6 0 -1 11 -18 25 -35 29 -13 35 24 6z
m87 -1 c0 -8 4 -23 9 -33 4 -10 5 -20 2 -23 -10 -11 -27 7 -28 29 0 12 -3 16
-6 10 -2 -7 -11 -13 -19 -13 -9 0 -13 4 -9 9 3 5 0 13 -7 17 -8 5 -6 10 8 15
27 11 49 6 50 -11z m-376 -9 c0 -12 -20 -25 -27 -18 -7 7 6 27 18 27 5 0 9 -4
9 -9z m450 -8 c0 -14 -19 -38 -25 -32 -8 8 5 39 16 39 5 0 9 -3 9 -7z m-400
-11 c0 -13 -39 -46 -46 -39 -9 9 16 47 31 47 8 0 15 -4 15 -8z m176 -21 c14
-16 31 -28 38 -26 6 2 21 -9 34 -26 21 -25 22 -30 7 -35 -14 -6 -14 -8 1 -25
14 -15 15 -22 6 -31 -9 -9 -16 -7 -30 12 -9 14 -15 30 -14 35 2 6 -2 4 -9 -2
-17 -17 -29 -16 -29 0 0 8 -11 19 -25 25 -36 16 -31 2 10 -31 19 -15 35 -34
35 -42 0 -22 -5 -19 -48 23 l-40 39 -17 -29 c-10 -17 -21 -26 -26 -21 -10 10
0 53 12 53 5 0 9 7 9 15 0 8 9 15 19 15 11 0 21 6 24 13 3 9 8 9 21 -2 9 -8
19 -11 22 -8 3 3 -6 13 -19 22 -24 15 -27 15 -51 0 -14 -10 -26 -24 -26 -31 0
-18 -19 -18 -26 0 -8 20 56 81 88 85 5 1 20 -12 34 -28z m-149 -32 c-14 -20
-17 -20 -23 -6 -8 21 15 52 29 38 6 -6 4 -17 -6 -32z m278 31 c11 -17 -5 -32
-21 -19 -7 6 -11 15 -8 20 7 12 21 11 29 -1z m-395 -4 c0 -3 -4 -8 -10 -11 -5
-3 -10 -1 -10 4 0 6 5 11 10 11 6 0 10 -2 10 -4z m499 -8 c0 -7 -4 -22 -8 -32
-10 -26 -25 -3 -16 24 7 22 25 28 24 8z m-469 -7 c0 -6 -4 -13 -10 -16 -5 -3
-10 1 -10 9 0 9 5 16 10 16 6 0 10 -4 10 -9z m433 -11 c-3 -11 -7 -20 -9 -20
-2 0 -4 9 -4 20 0 11 4 20 9 20 5 0 7 -9 4 -20z m156 -22 c-11 -21 -11 -22 5
-9 25 21 31 6 9 -23 -19 -23 -20 -23 -31 -5 -16 26 -15 39 5 61 21 24 29 8 12
-24z m-624 13 c3 -5 1 -12 -5 -16 -5 -3 -10 1 -10 9 0 18 6 21 15 7z m443 -2
c-2 -6 -8 -10 -13 -10 -5 0 -11 4 -13 10 -2 6 4 11 13 11 9 0 15 -5 13 -11z
m92 2 c0 -13 -29 -78 -30 -66 0 6 -7 -3 -15 -20 -50 -108 -52 -114 -41 -118 6
-2 8 -8 4 -12 -4 -4 -14 0 -23 9 -9 9 -21 14 -26 11 -5 -4 -9 1 -9 11 0 13 3
14 15 4 12 -10 15 -7 21 17 4 15 14 38 22 50 11 18 12 29 3 54 -13 38 -7 48
18 32 15 -10 21 -8 31 13 13 24 30 32 30 15z m-460 -36 c-7 -13 -17 -22 -22
-19 -12 8 -10 21 8 39 22 22 30 11 14 -20z m330 4 c0 -18 -2 -19 -15 -9 -8 7
-15 16 -15 21 0 5 7 9 15 9 9 0 15 -9 15 -21z m-370 -3 c0 -15 -18 -31 -26
-23 -7 7 7 37 17 37 5 0 9 -6 9 -14z m110 3 c0 -16 -36 -59 -44 -52 -11 11 -7
31 10 47 18 19 34 21 34 5z m420 -3 c0 -7 -6 -26 -14 -40 -11 -21 -15 -23 -20
-11 -6 17 12 65 26 65 4 0 8 -6 8 -14z m-620 -27 c0 -12 -7 -19 -20 -19 -11 0
-20 4 -20 10 0 5 7 7 16 3 13 -5 15 -2 9 17 -5 15 -4 20 4 16 6 -4 11 -16 11
-27z m498 -1 c2 -13 -4 -31 -12 -38 -13 -10 -16 -10 -16 4 0 10 5 14 10 11 13
-8 13 11 -1 37 -9 16 -8 19 3 16 7 -3 14 -16 16 -30z m-448 12 c0 -5 -2 -10
-4 -10 -3 0 -8 5 -11 10 -3 6 -1 10 4 10 6 0 11 -4 11 -10z m406 -48 c-10 -10
-39 25 -31 38 5 8 12 5 22 -10 8 -12 12 -24 9 -28z m189 11 c-8 -32 -13 -39
-21 -30 -10 9 5 57 17 57 7 0 9 -10 4 -27z m-545 8 c0 -5 -7 -14 -15 -21 -12
-10 -15 -10 -15 2 0 8 3 18 7 21 9 10 23 9 23 -2z m37 -28 c1 -43 -4 -56 -18
-47 -6 4 -6 11 2 20 8 10 8 14 0 14 -12 0 -15 32 -4 43 14 14 19 6 20 -30z
m-87 10 c0 -6 -9 -9 -20 -6 -21 5 -28 -11 -10 -22 6 -3 10 -10 10 -16 0 -5 -4
-9 -10 -9 -5 0 -10 8 -10 17 0 9 -3 13 -7 10 -3 -4 -12 1 -19 11 -10 14 -10
18 4 23 26 10 62 5 62 -8z m354 -45 c-7 -12 -44 30 -44 50 0 13 6 10 24 -13
13 -16 22 -33 20 -37z m266 22 c-7 -4 -9 -13 -6 -19 4 -6 3 -11 -2 -11 -19 0
-21 14 -4 42 13 23 18 26 20 12 2 -9 -2 -20 -8 -24z m-740 -12 c0 -5 -7 -20
-16 -34 l-17 -24 -13 26 c-18 34 -18 39 1 24 19 -16 34 -5 17 12 -7 7 -12 19
-12 27 0 11 4 10 20 -4 11 -10 20 -22 20 -27z m268 10 c-1 -18 -9 -44 -19 -57
-24 -30 -25 -9 -2 26 17 26 17 27 0 20 -20 -7 -23 13 -5 31 20 20 27 14 26
-20z m72 19 c0 -12 -34 -47 -45 -47 -11 0 -4 25 13 41 21 21 32 24 32 6z m50
-23 c0 -12 -4 -12 -20 -4 -11 6 -20 17 -20 26 0 12 4 12 20 4 11 -6 20 -17 20
-26z m252 4 c-7 -7 -12 -19 -12 -27 0 -11 5 -10 22 5 21 19 21 19 13 -1 -4
-11 -7 -28 -7 -37 0 -10 -3 -18 -9 -18 -5 0 -9 6 -9 14 0 7 -7 19 -15 26 -18
15 -19 42 -3 58 8 8 15 9 22 2 7 -7 6 -14 -2 -22z m-469 -23 c-3 -8 -9 -15
-14 -15 -10 0 -12 24 -3 33 11 11 24 -3 17 -18z m347 9 c0 -14 -3 -14 -15 -4
-8 7 -15 14 -15 16 0 2 7 4 15 4 8 0 15 -7 15 -16z m30 -12 c0 -15 -2 -15 -10
-2 -13 20 -13 33 0 25 6 -3 10 -14 10 -23z m-499 2 c10 -13 10 -20 0 -36 -9
-15 -9 -23 0 -34 8 -10 8 -14 0 -14 -6 0 -11 5 -11 11 0 5 -4 8 -9 5 -5 -3
-12 1 -15 10 -10 25 -7 34 9 28 17 -7 21 11 5 21 -12 8 -13 25 -1 25 5 0 14
-7 22 -16z m336 -22 c4 -9 13 -22 21 -28 8 -6 12 -16 8 -22 -10 -17 -26 -15
-26 3 0 9 -7 27 -16 40 -13 20 -20 23 -35 14 -10 -5 -19 -17 -19 -25 0 -8 -4
-12 -10 -9 -15 9 -12 19 10 43 17 18 25 20 41 11 11 -5 23 -18 26 -27z m-247
18 c0 -5 -4 -10 -10 -10 -5 0 -10 5 -10 10 0 6 5 10 10 10 6 0 10 -4 10 -10z
m280 -6 c0 -8 -4 -12 -10 -9 -5 3 -10 10 -10 16 0 5 5 9 10 9 6 0 10 -7 10
-16z m34 -6 c9 -35 7 -45 -7 -45 -8 0 -14 14 -15 34 -3 37 12 45 22 11z m-366
-20 c-2 -12 -8 -23 -14 -25 -7 -2 -10 6 -7 22 6 30 26 34 21 3z m422 8 c0 -8
-4 -18 -10 -21 -5 -3 -10 3 -10 14 0 12 5 21 10 21 6 0 10 -6 10 -14z m92 -12
c-3 -15 -8 -22 -14 -16 -9 9 -1 42 12 42 4 0 5 -12 2 -26z m94 7 c-10 -11 -15
-25 -11 -30 3 -6 1 -11 -4 -11 -15 0 -14 33 1 48 20 20 32 13 14 -7z m-523
-11 c-3 -11 -7 -20 -9 -20 -2 0 -4 9 -4 20 0 11 4 20 9 20 5 0 7 -9 4 -20z
m28 -7 c-8 -15 -10 -15 -11 -2 0 17 10 32 18 25 2 -3 -1 -13 -7 -23z m-51 -4
c0 -6 -4 -7 -10 -4 -5 3 -10 11 -10 16 0 6 5 7 10 4 6 -3 10 -11 10 -16z m126
9 c-3 -7 -9 -21 -12 -30 -7 -19 -24 -25 -24 -8 0 15 23 50 33 50 5 0 6 -6 3
-12z m111 -35 c7 -15 11 -29 8 -31 -3 -3 -5 0 -5 6 0 18 -28 14 -39 -5 -5 -10
-12 -15 -16 -12 -3 4 1 14 10 23 10 10 14 24 10 34 -5 14 -9 13 -23 -11 -18
-29 -32 -35 -32 -13 0 18 40 44 60 39 8 -2 21 -16 27 -30z m238 7 c-6 -18 -3
-20 21 -14 23 6 26 4 21 -10 -4 -10 -7 -22 -7 -28 0 -6 -12 1 -26 15 -15 16
-24 33 -20 42 8 23 18 18 11 -5z m-625 -10 c0 -11 -4 -20 -9 -20 -6 0 -9 9 -8
20 1 11 5 20 9 20 4 0 8 -9 8 -20z m498 -20 c3 -17 6 -20 12 -9 18 27 24 -24
13 -108 -13 -105 -39 -142 -30 -43 l6 65 -15 -49 c-14 -45 -14 -55 0 -112 9
-34 13 -69 10 -78 -3 -8 6 -30 20 -49 14 -19 26 -40 25 -48 0 -12 -2 -12 -6 0
-5 11 -7 11 -14 0 -7 -11 -9 -11 -9 -1 0 8 -5 10 -12 5 -22 -13 -38 -12 -38 4
0 12 -2 12 -16 -1 -23 -24 -37 -20 -30 9 5 18 2 25 -9 25 -17 0 -19 9 -5 30 8
13 10 12 10 -3 0 -10 4 -16 8 -13 5 3 9 20 9 38 0 18 -2 25 -4 15 -4 -14 -8
-16 -18 -7 -11 9 -15 5 -19 -22 -3 -18 -4 -44 -3 -58 2 -22 -2 -25 -35 -28
-31 -3 -38 0 -40 15 0 10 -2 23 -2 30 -1 7 -7 18 -14 25 -6 6 -11 30 -10 53
l1 40 6 -45 c5 -33 9 -4 15 108 l9 152 33 0 c24 0 34 5 34 16 0 8 -4 12 -10 9
-5 -3 -10 -2 -10 3 0 5 11 10 25 10 16 0 25 -6 25 -17 0 -9 5 -23 11 -31 8
-11 9 -7 6 20 -4 29 0 39 22 57 31 27 45 25 49 -7z m-329 -336 c-17 -21 -43
-18 -33 4 4 9 12 46 18 82 l11 65 8 -69 c5 -47 4 -73 -4 -82z m366 62 c9 -46
3 -79 -15 -81 -12 -2 -14 8 -12 56 4 65 18 78 27 25z m15 -109 c0 -8 9 -22 20
-32 20 -18 21 -18 14 1 -5 15 -4 16 5 4 17 -23 13 -32 -11 -28 -14 2 -28 15
-35 32 -16 34 -16 36 -3 36 6 0 10 -6 10 -13z m30 3 c0 -5 -2 -10 -4 -10 -3 0
-8 5 -11 10 -3 6 -1 10 4 10 6 0 11 -4 11 -10z m-654 -77 c-10 -10 -19 5 -10
18 6 11 8 11 12 0 2 -7 1 -15 -2 -18z m334 5 c0 -4 -4 -10 -10 -13 -5 -3 -10
-1 -10 6 0 8 -4 8 -15 -1 -14 -12 -22 0 -9 13 8 8 44 4 44 -5z m-206 -13 c-6
-16 -24 -21 -24 -7 0 11 11 22 21 22 5 0 6 -7 3 -15z m41 5 c-3 -5 -10 -10
-16 -10 -5 0 -9 5 -9 10 0 6 7 10 16 10 8 0 12 -4 9 -10z m349 -19 c50 -31 79
-93 74 -153 -9 -85 -64 -139 -152 -146 -187 -15 -252 230 -82 310 49 22 112
18 160 -11z m44 11 c6 -18 -15 -14 -22 4 -4 10 -1 14 6 12 6 -2 14 -10 16 -16z
m30 0 c6 -18 -15 -14 -22 4 -4 10 -1 14 6 12 6 -2 14 -10 16 -16z m63 2 c14
-17 -2 -19 -19 -2 -9 9 -12 9 -12 0 0 -16 -17 -15 -23 2 -4 9 2 14 19 14 13 0
29 -7 35 -14z m87 3 c6 -5 12 -4 12 2 0 6 7 8 15 5 8 -4 15 -13 15 -21 0 -13
-3 -13 -15 -3 -12 10 -15 10 -15 0 0 -8 -4 -9 -12 -3 -7 5 -25 8 -40 7 -15 -2
-29 3 -32 11 -3 10 4 13 27 11 18 -1 38 -5 45 -9z m72 -18 c0 -6 -4 -7 -10 -4
-5 3 -10 11 -10 16 0 6 5 7 10 4 6 -3 10 -11 10 -16z m45 1 c3 -5 1 -10 -4
-10 -6 0 -11 5 -11 10 0 6 2 10 4 10 3 0 8 -4 11 -10z m-234 -32 l2 -23 4 23
c3 17 11 22 34 22 20 0 29 -5 30 -17 1 -16 2 -17 6 -1 4 17 10 17 66 -5 27 -9
29 -13 25 -59 -1 -26 0 -48 4 -48 4 0 12 -9 18 -19 11 -21 -2 -70 -22 -82 -7
-5 -7 -12 1 -25 10 -18 10 -18 11 4 0 12 5 22 10 22 12 0 13 -20 2 -35 -4 -5
-29 -11 -55 -11 -43 -1 -48 1 -44 17 3 11 1 21 -3 24 -5 3 -10 -7 -12 -22 -2
-16 -7 -26 -13 -23 -5 3 -9 8 -7 13 4 13 -19 7 -35 -9 -13 -13 -17 -13 -24 -2
-7 10 -9 10 -9 1 0 -9 -16 -13 -46 -13 l-47 0 40 43 c30 33 42 55 47 90 4 26
11 49 17 52 14 10 11 35 -5 29 -9 -3 -18 7 -27 28 -7 18 -14 36 -17 41 -2 4 8
7 22 7 20 0 26 -5 27 -22z m234 -13 c16 0 21 -10 28 -50 5 -27 5 -75 0 -105
l-8 -55 -6 70 -5 70 -3 -75 c-3 -58 -5 -68 -11 -45 l-8 30 -2 -35 c-2 -27 -5
-22 -10 25 -10 80 -12 193 -2 180 4 -6 16 -11 27 -10z m-925 -95 c0 -31 -15
-48 -23 -27 -7 19 4 68 14 61 5 -3 9 -18 9 -34z m-38 8 c-7 -7 -12 -8 -12 -2
0 14 12 26 19 19 2 -3 -1 -11 -7 -17z m788 -186 c0 -4 -16 -8 -35 -9 -19 0
-35 4 -35 9 0 5 3 7 8 5 4 -3 16 -1 27 3 21 8 35 4 35 -8z m70 0 c0 -10 -46
-9 -56 1 -4 4 7 7 24 7 18 0 32 -4 32 -8z m-182 -29 c-10 -2 -26 -2 -35 0 -10
3 -2 5 17 5 19 0 27 -2 18 -5z m-428 -23 c0 -5 -4 -10 -10 -10 -5 0 -10 5 -10
10 0 6 5 10 10 10 6 0 10 -4 10 -10z m30 -5 c0 -8 -2 -15 -4 -15 -2 0 -6 7
-10 15 -3 8 -1 15 4 15 6 0 10 -7 10 -15z m40 0 c0 -8 -4 -15 -10 -15 -5 0
-10 7 -10 15 0 8 5 15 10 15 6 0 10 -7 10 -15z m30 -1 c0 -8 -4 -12 -10 -9 -5
3 -10 10 -10 16 0 5 5 9 10 9 6 0 10 -7 10 -16z m38 -3 c3 -8 -1 -12 -9 -9 -7
2 -15 10 -17 17 -3 8 1 12 9 9 7 -2 15 -10 17 -17z m32 4 c0 -8 -4 -15 -10
-15 -5 0 -10 7 -10 15 0 8 5 15 10 15 6 0 10 -7 10 -15z m67 -2 c2 -6 -8 -10
-22 -10 -14 0 -25 5 -25 13 0 16 42 13 47 -3z m243 2 c0 -8 -4 -15 -10 -15 -5
0 -10 7 -10 15 0 8 5 15 10 15 6 0 10 -7 10 -15z m30 0 c0 -8 -4 -15 -10 -15
-5 0 -10 7 -10 15 0 8 5 15 10 15 6 0 10 -7 10 -15z m45 6 c3 -5 1 -12 -5 -16
-5 -3 -10 1 -10 9 0 18 6 21 15 7z m45 5 c0 -3 -4 -8 -10 -11 -5 -3 -10 -1
-10 4 0 6 5 11 10 11 6 0 10 -2 10 -4z"/>
<path d="M6395 3638 c7 -17 -9 -20 -30 -6 -14 9 -42 -8 -32 -19 5 -4 13 -1 18
7 9 12 10 10 6 -7 -5 -22 -4 -22 24 -8 15 8 35 15 44 15 8 0 15 7 15 16 0 13
-3 14 -13 5 -10 -8 -17 -7 -26 2 -10 9 -11 9 -6 -5z"/>
<path d="M6517 3629 c15 -13 53 -21 53 -10 0 6 -3 11 -7 12 -5 0 -18 2 -31 3
-12 2 -19 -1 -15 -5z"/>
<path d="M6591 3627 c2 -1 13 -9 24 -17 19 -14 19 -14 6 3 -7 9 -18 17 -24 17
-6 0 -8 -1 -6 -3z"/>
<path d="M6595 3589 c11 -13 21 -26 22 -28 2 -2 3 3 3 12 0 9 -10 22 -22 28
l-23 12 20 -24z"/>
<path d="M6418 3579 c17 -6 22 -15 20 -31 -2 -19 -9 -23 -38 -21 -28 1 -31 0
-17 -9 17 -9 17 -12 3 -33 -8 -12 -14 -31 -14 -41 1 -11 -2 -28 -5 -40 -6 -16
-2 -23 17 -32 20 -9 25 -8 30 5 5 12 10 11 26 -8 l19 -24 -6 22 c-7 30 20 40
52 19 14 -9 26 -12 30 -6 3 5 13 6 22 3 9 -4 21 1 29 12 22 30 16 35 -16 17
-28 -16 -32 -16 -60 0 -29 17 -32 17 -63 -2 -38 -24 -47 -25 -47 -6 0 8 -6 17
-12 19 -10 4 -9 6 1 6 11 1 11 4 1 16 -11 13 -9 13 23 0 31 -13 36 -13 41 1 5
12 1 14 -15 9 -22 -7 -52 12 -43 27 3 5 12 1 19 -9 7 -10 17 -15 21 -10 4 4 2
7 -4 7 -7 0 -11 10 -11 23 1 17 2 18 6 4 10 -39 103 -41 103 -2 0 8 5 15 10
15 12 0 13 -22 3 -36 -8 -10 20 22 37 43 7 9 1 10 -25 6 -30 -5 -35 -3 -35 14
0 26 25 47 45 39 9 -3 13 -2 10 4 -10 17 -41 11 -61 -11 -15 -16 -16 -24 -7
-39 10 -14 9 -21 -1 -29 -22 -18 -46 -2 -44 29 3 34 -17 60 -46 59 -20 0 -20
-1 2 -10z"/>
<path d="M6332 3560 c0 -14 2 -19 5 -12 2 6 2 18 0 25 -3 6 -5 1 -5 -13z"/>
<path d="M6384 3573 c3 -4 0 -13 -7 -22 -11 -14 -10 -14 5 -2 10 7 25 11 33 7
9 -3 14 -2 11 3 -3 5 -15 11 -27 14 -11 3 -18 3 -15 0z"/>
<path d="M6627 3522 c7 -27 -24 -57 -43 -41 -8 6 -13 3 -17 -10 -4 -15 -1 -18
12 -13 14 5 15 4 1 -14 -14 -17 -14 -18 2 -6 21 17 39 7 31 -15 -4 -10 -2 -14
4 -10 6 4 13 19 15 34 3 16 8 35 12 43 3 9 0 24 -8 35 -15 19 -15 19 -9 -3z"/>
<path d="M6195 3450 c27 -12 35 -12 35 0 0 6 -12 10 -27 9 -25 0 -26 -1 -8 -9z"/>
<path d="M6495 3350 c-16 -7 -17 -9 -3 -9 9 -1 20 4 23 9 7 11 7 11 -20 0z"/>
<path d="M6766 3454 c-3 -7 -15 -15 -28 -17 -14 -3 -10 -4 10 -4 20 1 37 8 42
18 6 11 5 16 -5 16 -8 0 -16 -6 -19 -13z"/>
<path d="M5955 3440 c-3 -5 -4 -14 -1 -19 8 -12 46 -2 46 11 0 6 -7 7 -16 4
-8 -3 -12 -2 -9 4 3 6 2 10 -4 10 -5 0 -13 -4 -16 -10z"/>
<path d="M5936 3371 c-4 -7 -5 -15 -2 -18 9 -9 19 4 14 18 -4 11 -6 11 -12 0z"/>
<path d="M5965 3370 c-3 -6 1 -7 9 -4 18 7 22 -11 6 -21 -8 -5 -8 -11 0 -20 8
-10 7 -14 -2 -18 -10 -3 -10 -7 -1 -17 8 -9 15 -9 30 0 17 11 17 11 -2 6 -19
-6 -19 -6 -1 9 22 17 40 10 31 -14 -5 -12 -4 -13 6 -4 10 10 9 15 0 27 -7 9
-18 14 -24 13 -7 -1 -12 5 -12 13 0 8 9 16 20 18 38 7 33 17 -10 20 -24 1 -47
-2 -50 -8z"/>
<path d="M6018 3263 c7 -3 16 -2 19 1 4 3 -2 6 -13 5 -11 0 -14 -3 -6 -6z"/>
<path d="M6174 3295 c22 -17 36 -19 36 -6 0 10 -24 21 -43 21 -7 0 -3 -7 7
-15z"/>
<path d="M6227 3283 c-12 -11 -8 -21 13 -26 17 -4 18 -2 9 14 -11 21 -13 22
-22 12z"/>
<path d="M6135 3270 c-6 -10 1 -14 18 -11 4 1 17 -3 27 -9 11 -6 20 -8 20 -6
0 12 -59 35 -65 26z"/>
<path d="M6543 3076 c-10 -11 -9 -15 1 -19 16 -7 26 1 26 20 0 17 -12 16 -27
-1z"/>
<path d="M6631 2764 c0 -11 3 -14 6 -6 3 7 2 16 -1 19 -3 4 -6 -2 -5 -13z"/>
<path d="M6550 2720 c-1 -19 -5 -44 -10 -55 -8 -21 -8 -21 -23 50 -3 11 -5 -2
-5 -30 0 -27 5 -68 12 -90 l12 -40 14 86 c7 47 10 92 7 100 -3 8 -6 -2 -7 -21z"/>
<path d="M6561 2613 c0 -12 -4 -30 -7 -40 -5 -17 -5 -17 6 0 6 10 9 28 7 40
-4 22 -4 22 -6 0z"/>
<path d="M6574 2506 c1 -35 5 -45 16 -43 8 1 14 -3 13 -10 -1 -6 4 -14 12 -17
22 -8 18 11 -5 31 -11 10 -20 27 -20 38 0 11 -4 26 -9 33 -5 8 -8 -5 -7 -32z"/>
<path d="M6400 2348 c-93 -62 -91 -182 3 -252 40 -30 122 -28 165 3 32 22 62
68 62 93 0 7 -8 -2 -17 -20 -31 -63 -98 -98 -166 -85 -38 7 -95 67 -103 108
-8 46 11 99 47 129 82 70 215 24 227 -77 4 -34 9 -44 18 -35 13 14 -18 86 -51
118 -30 29 -43 34 -92 38 -48 3 -64 0 -93 -20z"/>
<path d="M6454 2235 c-11 -28 35 -61 50 -37 3 5 -5 8 -17 8 -17 -1 -22 5 -21
22 1 26 -4 28 -12 7z"/>
<path d="M6495 2240 c3 -5 -1 -10 -9 -10 -9 0 -16 -4 -16 -10 0 -13 17 -13 25
0 4 6 11 8 16 5 5 -3 6 1 3 9 -3 9 -10 16 -16 16 -5 0 -6 -4 -3 -10z"/>
<path d="M6710 2301 c0 -6 5 -13 10 -16 6 -3 10 1 10 9 0 9 -4 16 -10 16 -5 0
-10 -4 -10 -9z"/>
<path d="M6755 2300 c4 -6 -1 -21 -12 -33 l-18 -21 27 17 c40 25 51 22 43 -13
-5 -24 -3 -30 10 -30 12 0 15 5 11 16 -3 9 -6 22 -6 30 0 7 -14 21 -31 30 -17
8 -28 10 -24 4z"/>
<path d="M6680 2210 c0 -34 15 -70 30 -70 4 0 2 14 -7 30 -8 17 -12 37 -9 45
3 8 1 17 -4 20 -6 4 -10 -8 -10 -25z"/>
<path d="M6777 2173 c-19 -18 -5 -33 31 -31 36 1 36 1 5 5 -23 3 -30 8 -26 19
5 15 1 18 -10 7z"/>
<path d="M6730 2116 c0 -9 5 -16 10 -16 6 0 10 4 10 9 0 6 -4 13 -10 16 -5 3
-10 -1 -10 -9z"/>
<path d="M8270 3649 c-53 -21 -100 -86 -113 -157 -10 -49 14 -98 57 -119 38
-18 45 -37 23 -67 -12 -17 -17 -16 -80 9 -37 15 -70 25 -73 22 -3 -2 -6 -17
-7 -33 -2 -26 3 -30 61 -54 58 -23 62 -27 57 -51 -4 -18 -1 -28 9 -32 10 -4
24 16 49 76 20 45 42 83 51 85 8 2 26 -3 40 -10 l25 -13 -19 -43 c-17 -37 -17
-44 -4 -49 8 -3 17 -3 20 0 3 3 32 67 64 144 l58 138 -54 25 c-51 23 -54 26
-54 62 0 28 -6 42 -26 57 -29 23 -46 25 -84 10z m59 -76 c11 -22 -35 -153 -54
-153 -28 0 -75 51 -75 82 0 63 103 119 129 71z m74 -110 c21 -6 22 -25 2 -64
-16 -29 -16 -29 -48 -13 -18 9 -33 18 -35 19 -2 1 5 19 15 39 12 26 21 35 32
30 9 -3 24 -9 34 -11z"/>
<path d="M6967 3422 c-14 -16 -15 -23 -4 -45 12 -28 34 -38 24 -12 -4 8 -2 17
3 20 12 8 13 55 2 55 -5 0 -16 -8 -25 -18z m23 -11 c0 -12 -20 -25 -27 -18 -7
7 6 27 18 27 5 0 9 -4 9 -9z"/>
<path d="M6893 3280 c2 -8 14 -16 28 -17 19 -1 20 -1 4 4 -11 3 -24 10 -28 17
-6 7 -7 6 -4 -4z"/>
<path d="M5670 2632 c-21 -10 -42 -32 -54 -55 -16 -34 -17 -42 -5 -74 46 -120
229 -94 229 32 0 41 -26 81 -64 99 -43 20 -63 20 -106 -2z m103 -13 c30 -13
50 -47 50 -84 0 -77 -79 -118 -153 -80 -35 18 -50 43 -50 82 0 71 82 115 153
82z"/>
<path d="M5698 2569 c-23 -13 -23 -56 0 -68 25 -13 62 -3 63 18 1 16 -1 45 -4
47 -12 9 -46 11 -59 3z"/>
<path d="M7151 2624 c-85 -72 -21 -206 92 -191 46 6 93 47 102 87 9 40 -18 96
-54 114 -47 25 -104 21 -140 -10z m130 1 c54 -29 65 -97 21 -146 -80 -90 -223
16 -158 116 29 45 85 56 137 30z"/>
<path d="M7191 2558 c-11 -31 7 -60 38 -56 54 7 52 70 -3 76 -20 3 -28 -2 -35
-20z"/>
<path d="M6772 2600 c0 -14 6 -41 14 -60 15 -37 13 -15 -4 50 -8 28 -10 30
-10 10z"/>
<path d="M6350 2495 c-10 -12 -10 -15 4 -15 9 0 16 7 16 15 0 8 -2 15 -4 15
-2 0 -9 -7 -16 -15z"/>
<path d="M6333 2451 c1 -14 9 -26 17 -28 10 -3 11 -2 4 4 -7 4 -14 17 -17 28
-5 16 -5 15 -4 -4z"/>
<path d="M6936 2378 c4 -7 16 -25 27 -40 12 -16 17 -34 13 -44 -4 -10 0 -24 9
-34 15 -17 11 -50 -6 -50 -5 0 -9 -4 -9 -10 0 -6 140 -10 400 -10 l400 0 0
100 0 100 -421 0 c-333 0 -419 -3 -413 -12z"/>
<path d="M6970 2251 c0 -5 5 -13 10 -16 6 -3 10 -2 10 4 0 5 -4 13 -10 16 -5
3 -10 2 -10 -4z"/>
<path d="M6020 2170 c0 -5 5 -10 11 -10 5 0 7 5 4 10 -3 6 -8 10 -11 10 -2 0
-4 -4 -4 -10z"/>
<path d="M6053 2161 c0 -11 5 -17 9 -15 11 7 10 34 -1 34 -6 0 -9 -9 -8 -19z"/>
<path d="M6110 2166 c0 -9 -11 -21 -25 -26 -24 -9 -37 -50 -15 -50 5 0 7 6 4
14 -3 7 7 21 22 31 22 14 31 15 46 6 10 -6 27 -11 38 -11 26 0 77 -26 83 -42
4 -9 6 -9 6 -1 1 6 -6 19 -15 27 -8 9 -12 16 -7 16 4 1 -9 7 -31 15 -21 7 -45
11 -53 8 -7 -3 -23 3 -33 12 -18 17 -20 17 -20 1z"/>
<path d="M6300 2120 c6 -11 13 -20 16 -20 2 0 0 9 -6 20 -6 11 -13 20 -16 20
-2 0 0 -9 6 -20z"/>
<path d="M6282 2078 c-19 -19 -14 -25 18 -20 19 3 30 10 30 21 0 14 -2 14 -10
1 -8 -12 -12 -12 -18 -3 -6 10 -11 10 -20 1z"/>
<path d="M6240 2059 c0 -5 5 -7 10 -4 6 3 10 8 10 11 0 2 -4 4 -10 4 -5 0 -10
-5 -10 -11z"/>
<path d="M4461 2364 c-13 -9 -29 -32 -37 -50 -13 -30 -12 -38 0 -63 22 -43 62
-54 90 -25 22 22 20 60 -5 85 -17 17 -19 23 -8 30 51 32 129 -25 129 -94 0
-51 -62 -98 -101 -77 -11 6 -24 8 -30 5 -10 -7 105 -143 129 -152 8 -4 42 22
83 62 52 53 66 72 57 82 -8 10 -25 0 -78 -47 l-67 -59 -33 34 -33 34 27 7 c14
3 37 20 51 36 42 50 30 122 -29 177 -34 32 -111 40 -145 15z m29 -69 c16 -20
6 -45 -19 -45 -25 0 -34 14 -26 40 8 24 28 26 45 5z"/>
<path d="M8190 2365 c-10 -11 -10 -19 -2 -27 15 -15 44 -2 40 19 -4 23 -22 27
-38 8z"/>
<path d="M8282 2357 c-37 -39 -29 -70 33 -123 l54 -47 -27 -33 c-15 -18 -31
-33 -37 -33 -5 -1 -35 24 -66 55 -42 42 -62 55 -75 50 -15 -6 -5 -20 57 -82
l74 -76 88 94 c96 102 109 128 81 159 -52 58 -145 76 -182 36z m126 -37 c23
-17 42 -33 42 -37 0 -3 -12 -21 -26 -40 l-25 -34 -51 42 c-27 24 -52 48 -55
56 -19 50 52 59 115 13z"/>
<path d="M8113 2179 c-10 -9 4 -30 65 -97 l77 -85 -39 -33 c-46 -40 -60 -43
-49 -11 29 84 -53 177 -131 148 -39 -15 -33 -33 9 -25 30 5 39 2 65 -24 37
-38 41 -83 8 -106 -30 -22 -30 -21 -83 24 -61 53 -102 55 -151 6 -48 -48 -48
-96 2 -143 46 -43 96 -43 127 -1 19 25 19 28 3 52 -22 35 -67 35 -95 0 -19
-24 -20 -25 -30 -5 -17 31 -13 56 12 79 34 32 60 27 113 -19 43 -37 50 -40 87
-34 25 5 38 3 36 -3 -2 -6 -43 -42 -91 -82 -67 -55 -88 -77 -88 -96 0 -49 50
-44 128 13 58 44 102 105 102 144 0 20 14 40 54 76 l54 50 -87 92 c-68 73 -89
90 -98 80z m-128 -305 c22 -23 14 -38 -23 -42 -26 -3 -32 0 -32 15 0 19 18 43
31 43 4 0 15 -7 24 -16z m158 -53 c-43 -58 -153 -124 -153 -92 0 6 37 41 83
80 59 50 83 65 85 54 2 -9 -5 -27 -15 -42z"/>
<path d="M4743 2049 c-64 -70 -71 -83 -52 -95 7 -4 37 21 73 61 l61 67 22 -24
23 -24 -55 -65 c-59 -69 -61 -74 -43 -85 11 -7 30 10 95 90 32 39 33 39 53 21
11 -10 23 -15 28 -11 6 7 -126 136 -138 135 -3 -1 -33 -32 -67 -70z"/>
<path d="M4946 1894 c-65 -76 -69 -101 -19 -124 18 -8 33 -20 33 -25 0 -12
162 -135 178 -135 14 0 114 159 107 171 -12 19 -26 7 -71 -61 -26 -38 -49 -70
-51 -70 -7 0 -123 82 -123 87 0 2 23 33 51 68 30 39 49 71 45 80 -9 24 -18 18
-64 -41 -35 -43 -49 -54 -72 -54 -18 0 -30 5 -30 13 0 7 22 40 50 74 40 49 47
63 36 72 -10 9 -26 -3 -70 -55z"/>
<path d="M5141 1930 c-8 -4 -11 -15 -8 -24 8 -20 47 -21 47 -2 0 20 -24 36
-39 26z"/>
<path d="M7607 1883 c-12 -11 -7 -43 6 -43 19 0 36 20 30 36 -5 15 -25 19 -36
7z"/>
<path d="M7717 1863 c-15 -14 -6 -23 22 -23 33 0 91 -57 91 -90 0 -25 -34 -60
-59 -60 -10 0 -35 20 -55 45 -21 25 -46 50 -57 56 -49 26 -139 -33 -139 -91 0
-90 96 -154 150 -100 54 54 -25 125 -82 73 -17 -15 -21 -15 -29 -3 -13 21 -2
62 23 83 35 30 64 22 98 -28 17 -25 40 -50 51 -56 44 -23 110 16 124 73 9 36
-20 95 -56 113 -29 16 -71 20 -82 8z m-67 -233 c0 -22 -19 -30 -42 -18 -23 11
-23 34 -1 47 21 12 43 -3 43 -29z"/>
<path d="M5284 1701 c-33 -15 -74 -70 -74 -101 0 -19 9 -36 26 -49 33 -26 45
-26 74 -3 30 24 30 70 -1 95 -19 15 -21 20 -8 28 19 13 75 4 107 -17 l25 -17
-28 -20 c-27 -20 -55 -71 -55 -102 0 -23 37 -55 64 -55 38 0 76 52 76 106 0
52 11 55 51 15 42 -43 37 -102 -14 -142 -11 -9 -17 -21 -13 -27 12 -19 52 7
76 50 20 35 21 45 11 77 -13 45 -44 75 -95 91 -21 7 -60 25 -85 42 -52 31
-104 43 -137 29z m12 -85 c8 -21 -15 -58 -34 -54 -9 2 -18 11 -20 21 -7 36 42
65 54 33z m159 -55 c-15 -62 -65 -98 -65 -47 0 28 47 89 62 80 5 -3 7 -18 3
-33z"/>
<path d="M7437 1694 c-3 -4 12 -42 34 -86 22 -44 39 -82 37 -84 -2 -2 -20 -10
-40 -18 l-36 -15 -6 38 c-18 114 -189 125 -240 16 -19 -39 -16 -73 10 -113 31
-47 99 -48 124 -1 28 50 -35 98 -85 65 -24 -16 -25 -16 -25 9 0 37 16 62 50
80 41 21 64 19 99 -11 34 -28 41 -68 19 -104 -22 -35 1 -33 91 10 l90 43 -47
88 c-43 82 -59 99 -75 83z m-152 -244 c0 -30 -32 -35 -49 -7 -8 14 -8 20 4 27
24 16 45 7 45 -20z"/>
<path d="M6909 1557 c-104 -70 -46 -257 80 -257 17 0 42 10 58 24 24 21 26 27
16 48 -21 45 -84 40 -109 -10 l-11 -22 -20 23 c-27 29 -45 89 -38 120 9 35 46
67 86 73 56 9 84 -21 115 -126 21 -71 31 -90 46 -90 23 0 23 -1 -13 107 -36
110 -58 133 -129 133 -32 0 -58 -7 -81 -23z m118 -193 c8 -21 -13 -42 -28 -27
-13 13 -5 43 11 43 6 0 13 -7 17 -16z"/>
<path d="M5668 1458 c-28 -74 -32 -95 -22 -101 29 -17 227 -77 255 -77 36 0
49 27 49 104 0 63 -24 101 -71 111 -42 9 -63 -13 -90 -92 -23 -69 -19 -67 -88
-41 -26 9 -26 10 12 110 14 36 23 69 20 72 -18 17 -33 -3 -65 -86z m241 -19
c12 -21 13 -37 5 -75 l-9 -49 -43 1 c-23 0 -45 4 -49 8 -4 3 3 38 16 77 19 61
25 70 44 67 12 -2 28 -15 36 -29z"/>
<path d="M6071 1492 c-112 -56 -98 -201 23 -247 49 -19 106 -15 126 10 33 40
-24 100 -74 77 -20 -9 -26 -19 -26 -42 0 -30 0 -30 -29 -16 -85 44 -80 155 9
201 36 19 80 21 62 3 -33 -33 11 -98 58 -83 48 15 44 81 -7 104 -36 16 -103
13 -142 -7z m149 -53 c0 -20 -24 -26 -35 -9 -8 13 14 42 26 34 5 -3 9 -14 9
-25z m-25 -139 c4 -6 1 -18 -6 -26 -11 -13 -14 -13 -27 0 -8 8 -11 19 -8 25 9
14 33 14 41 1z"/>
<path d="M6310 1396 c0 -18 -3 -60 -6 -93 -6 -56 -5 -62 15 -72 17 -10 28 -9
51 3 27 13 30 13 30 -1 0 -13 16 -15 109 -11 60 2 113 6 117 10 3 4 3 50 -1
103 -6 79 -10 95 -23 95 -15 0 -17 -11 -14 -90 l4 -90 -76 0 -75 0 -3 87 c-4
110 -23 123 -31 21 -5 -58 -11 -77 -28 -90 -35 -29 -42 -13 -36 78 4 78 3 84
-14 84 -15 0 -19 -7 -19 -34z"/>
</g>
</svg>
